<svg width="84" height="140" viewBox="0 0 84 140" fill="none" xmlns="http://www.w3.org/2000/svg">
<path d="M72.2264 1.31683H81.2425V123.326H2.2959V98.5168L72.2264 1.31683Z" fill="#FFED00"/>
<path d="M2.25439 1.28802L2.2959 98.3128L72.2221 1.31685L2.25439 1.28802Z" fill="#E30613"/>
<rect x="1.21076" y="1.08527" width="80.3103" height="122.636" stroke="#040603" stroke-width="2.17055"/>
<path d="M71.0463 2.95081L0.790283 100.33L8.95649 100.707L70.4303 16.1024L71.0463 2.95081Z" fill="#008BD2"/>
<path d="M62.3514 60.4832L30.0667 38.8382L64.8965 21.135L62.3514 60.4832Z" fill="#040603"/>
<path d="M60.3593 96.4882H36.5007L48.4857 75.3641L60.3593 96.4882Z" fill="#040603"/>
<path d="M42.7183 108.371C42.7707 103.39 53.5934 103.795 58.0545 108.371H42.7183Z" fill="#E30613"/>
<path fill-rule="evenodd" clip-rule="evenodd" d="M7.22026 133.914H7.17875L5.43103 136.85H9.18862L7.22026 133.914ZM4.55499 138.127L3.2442 139.832H0L6.16944 131.538H8.57255L14.5738 139.832H11.2706L10.0494 138.136L4.55499 138.127ZM25.095 138.468H29.4643V139.838H22.0147V131.759H25.0994L25.095 138.468ZM39.0027 139.838H42.0874V133.131H45.277V131.759H35.8131V133.131H39.0027V139.838ZM55.9966 133.131V134.905H60.9077V136.275H55.9966V138.459H61.0955V139.829H52.9118V131.759H61.0955V133.131H55.9966ZM71.875 131.546H69.6532V139.838H72.7489V134.353H72.7795L81.1095 140H83.3335V131.759H80.2488V137.193H80.2073L71.875 131.546Z" fill="black"/>
</svg>
