<?xml version="1.0" encoding="UTF-8" standalone="no"?>
<svg
   id="Capa_1"
   data-name="Capa 1"
   viewBox="0 0 419.83801 205.657"
   version="1.1"
   sodipodi:docname="izertis.svg"
   width="419.83801"
   height="205.657"
   inkscape:version="1.3.2 (1:1.3.2+202311252150+091e20ef0f)"
   xmlns:inkscape="http://www.inkscape.org/namespaces/inkscape"
   xmlns:sodipodi="http://sodipodi.sourceforge.net/DTD/sodipodi-0.dtd"
   xmlns="http://www.w3.org/2000/svg"
   xmlns:svg="http://www.w3.org/2000/svg"
   xmlns:rdf="http://www.w3.org/1999/02/22-rdf-syntax-ns#"
   xmlns:cc="http://creativecommons.org/ns#"
   xmlns:dc="http://purl.org/dc/elements/1.1/">
  <sodipodi:namedview
     id="namedview9"
     pagecolor="#ffffff"
     bordercolor="#000000"
     borderopacity="0.25"
     inkscape:showpageshadow="2"
     inkscape:pageopacity="0.0"
     inkscape:pagecheckerboard="0"
     inkscape:deskcolor="#d1d1d1"
     inkscape:zoom="1.268"
     inkscape:cx="197.16088"
     inkscape:cy="57.176656"
     inkscape:window-width="1850"
     inkscape:window-height="1043"
     inkscape:window-x="1990"
     inkscape:window-y="0"
     inkscape:window-maximized="1"
     inkscape:current-layer="Capa_1" />
  <defs
     id="defs1">
    <style
       id="style1">.cls-1{fill:#eb5b5b;}</style>
  </defs>
  <title
     id="title1">500x500_coral</title>
  <g
     id="g1"
     transform="translate(20.500136,44.999842)">
    <path
       class="cls-1"
       d="m 142.46098,99.590234 a 30.37,30.37 0 0 1 -8.24,-1.09 19.41,19.41 0 0 1 -6.87,-3.4 17.73,17.73 0 0 1 -4.85,-5.93 20,20 0 0 1 -2,-8.83 h 40.76 c 1.17,-0.05 4.2,-0.35 5.87,-2 a 7.2,7.2 0 0 0 2.09,-4.35 c 0,-0.71 0,-1.43 0,-2.17 a 59,59 0 0 0 -2.31,-17.21 35.52,35.52 0 0 0 -6.52,-12.52 27.55,27.55 0 0 0 -10.12,-7.59 32.69,32.69 0 0 0 -13.31,-2.61 33.68,33.68 0 0 0 -27.27,12.88 42,42 0 0 0 -7.12,13.73 54.62,54.62 0 0 0 -2.46,16.49 51.48,51.48 0 0 0 2.6,16.93 34.93,34.93 0 0 0 7.6,12.799996 33.05,33.05 0 0 0 12.19,8.11 45.76,45.76 0 0 0 16.64,2.82 79.26,79.26 0 0 0 14.25,-1.23 55.4,55.4 0 0 0 14.7,-4.48 V 94.070234 a 71.83,71.83 0 0 1 -14.89,4.58 65.35,65.35 0 0 1 -10.74,0.94 z m -20.82,-40.43 a 23,23 0 0 1 2.82,-6 15.69,15.69 0 0 1 4.55,-4.56 13.3,13.3 0 0 1 13.24,-0.07 13.17,13.17 0 0 1 4.26,4.49 19.43,19.43 0 0 1 2.25,6 33.11,33.11 0 0 1 0.65,6.44 h -28.93 a 24.16,24.16 0 0 1 1.16,-6.3 z"
       id="path1" />
    <path
       class="cls-1"
       d="m 371.75098,51.420234 a 41.69,41.69 0 0 0 -6.59,-2.83 26.33,26.33 0 0 0 -8.6,-1.37 c -3.28,0 -5.77,0.72 -7.45,2.17 a 7.16,7.16 0 0 0 0.14,11.06 q 2.67,2.25 9.63,5.14 10.26,4.2 15.11,10.2 a 22.19,22.19 0 0 1 4.84,14.39 c 0,7.73 -2.74,13.889996 -8.24,18.529996 -5.5,4.64 -13.32,6.94 -23.44,6.94 a 54,54 0 0 1 -12.65,-1.45 35.38,35.38 0 0 1 -10.06,-3.91 l 4.05,-15.459996 a 43.76,43.76 0 0 0 8.47,3.61 32.85,32.85 0 0 0 10.34,1.739996 q 5.64,0 8.39,-2.169996 a 7.17,7.17 0 0 0 2.74,-5.94 7.94,7.94 0 0 0 -2.45,-6.07 c -1.65,-1.54 -4.68,-3.28 -9.12,-5.21 q -11.28,-4.63 -15.91,-10.7 a 20.71,20.71 0 0 1 -4.63,-12.74 24.4,24.4 0 0 1 2.1,-10 23.53,23.53 0 0 1 5.93,-8.1 28.33,28.33 0 0 1 9.22,-5.42 36,36 0 0 1 12.23,-2 46.56,46.56 0 0 1 11.35,1.3 38,38 0 0 1 8.61,3.19 z"
       id="path2" />
    <path
       class="cls-1"
       d="m 312.07098,114.20023 h -21.41 V 33.620234 h 21.41 z"
       id="path3" />
    <path
       class="cls-1"
       d="M 22.570982,114.20023 H 1.1709817 V 33.620234 H 22.570982 Z"
       id="path4" />
    <path
       class="cls-1"
       d="m 312.80098,11.440234 a 11,11 0 0 1 -3.25,8.33 11.57,11.57 0 0 1 -8.32,3.1 11.06,11.06 0 0 1 -8.25,-3.25 11.4,11.4 0 0 1 8.25,-19.6100004 11.37,11.37 0 0 1 8.39,3.19 11.19,11.19 0 0 1 3.18,8.2400004 z"
       id="path5" />
    <path
       class="cls-1"
       d="m 234.39098,14.170234 h 21.12 v 19.45 h 23.87 v 17.36 h -23.87 v 33.52 q 0,7.41 2.32,10.59 c 1.54,2.13 3.94,3.19 7.23,3.19 a 28.78,28.78 0 0 0 3.83,-0.21 c 1,-0.14 2.06,-0.32 3.12,-0.51 v 16.139996 a 22.66,22.66 0 0 1 -5.68,1.45 64.61,64.61 0 0 1 -8.39,0.5 q -8.67,0 -13.46,-3.26 a 20.34,20.34 0 0 1 -7,-7.88 27.5,27.5 0 0 1 -2.67,-9.629996 c -0.3,-3.32 -0.44,-6.09 -0.44,-8.31 z"
       id="path6" />
    <path
       class="cls-1"
       d="m 23.310982,11.440234 a 11,11 0 0 1 -3.26,8.33 11.53,11.53 0 0 1 -8.31,3.1 11.08,11.08 0 0 1 -8.2600003,-3.25 11.41,11.41 0 0 1 8.2600003,-19.6100004 11.37,11.37 0 0 1 8.39,3.19 11.19,11.19 0 0 1 3.18,8.2400004 z"
       id="path7" />
    <path
       class="cls-1"
       d="m 221.77098,35.210234 a 30.19,30.19 0 0 0 -5.4,-2.19 33.39,33.39 0 0 0 -3.81,-0.86 30.89,30.89 0 0 0 -9.36,-0.17 23.31,23.31 0 0 0 -6.33,1.68 22.72,22.72 0 0 0 -7.65,5.36 23.85,23.85 0 0 0 -4.91,8.09 28.26,28.26 0 0 0 -1.48,6.32 c -0.09,1.07 -0.16,2.08 -0.22,3 -0.12,1.93 -0.19,3.64 -0.19,5.1 v 52.619996 h 21.15 V 64.110234 c 0,-0.74 0,-1.43 0.06,-2.11 0.22,-3.74 1,-6.52 2.25,-8.3 1.54,-2.13 3.94,-3.19 7.23,-3.19 a 28.78,28.78 0 0 1 3.83,0.21 c 1,0.14 2.06,0.32 3.11,0.52 v 0 l 0.1,0.06 3.34,-15 a 18.32,18.32 0 0 0 -1.72,-1.09 z"
       id="path8" />
    <path
       class="cls-1"
       d="m 60.710982,96.990234 v -0.29 c 3.44,-4 7.17,-8.75 10.76,-13.63 v 0 l 21.92,-31.11 0.24,-0.33 a 11.64,11.64 0 0 0 0.91,-1.67 13,13 0 0 0 1.08,-5.39 c 0,-7.66 -4.91,-11 -10.26,-11 h -47.65 v 17.26 h 33.7 v 0.43 c -3.47,4.19 -6.94,8.53 -10.56,13.45 l -21.92,31.12 -0.24,0.34 a 12.35,12.35 0 0 0 -2,7.049996 c 0,7.67 4.9,11 10.26,11 h 50.47 V 96.990234 Z"
       id="path9" />
  </g>
  <metadata
     id="metadata9">
    <rdf:RDF>
      <cc:Work
         rdf:about="">
        <dc:title>500x500_coral</dc:title>
      </cc:Work>
    </rdf:RDF>
  </metadata>
</svg>
