<svg xmlns="http://www.w3.org/2000/svg" id="Capa_1" width="419.838" height="205.657" data-name="Capa 1" version="1.1"><defs id="defs1"><style id="style1">.cls-1{fill:#eb5b5b}</style></defs><g id="g1" transform="translate(20.5 45)"><path id="path1" d="M142.461 99.59a30.37 30.37 0 0 1-8.24-1.09 19.41 19.41 0 0 1-6.87-3.4 17.73 17.73 0 0 1-4.85-5.93 20 20 0 0 1-2-8.83h40.76c1.17-.05 4.2-.35 5.87-2a7.2 7.2 0 0 0 2.09-4.35v-2.17a59 59 0 0 0-2.31-17.21 35.52 35.52 0 0 0-6.52-12.52 27.55 27.55 0 0 0-10.12-7.59 32.69 32.69 0 0 0-13.31-2.61 33.68 33.68 0 0 0-27.27 12.88 42 42 0 0 0-7.12 13.73 54.62 54.62 0 0 0-2.46 16.49 51.48 51.48 0 0 0 2.6 16.93 34.93 34.93 0 0 0 7.6 12.8 33.05 33.05 0 0 0 12.19 8.11 45.76 45.76 0 0 0 16.64 2.82 79.26 79.26 0 0 0 14.25-1.23 55.4 55.4 0 0 0 14.7-4.48V94.07a71.83 71.83 0 0 1-14.89 4.58 65.35 65.35 0 0 1-10.74.94zm-20.82-40.43a23 23 0 0 1 2.82-6 15.69 15.69 0 0 1 4.55-4.56 13.3 13.3 0 0 1 13.24-.07 13.17 13.17 0 0 1 4.26 4.49 19.43 19.43 0 0 1 2.25 6 33.11 33.11 0 0 1 .65 6.44h-28.93a24.16 24.16 0 0 1 1.16-6.3z" class="cls-1"/><path id="path2" d="M371.751 51.42a41.69 41.69 0 0 0-6.59-2.83 26.33 26.33 0 0 0-8.6-1.37c-3.28 0-5.77.72-7.45 2.17a7.16 7.16 0 0 0 .14 11.06q2.67 2.25 9.63 5.14 10.26 4.2 15.11 10.2a22.19 22.19 0 0 1 4.84 14.39c0 7.73-2.74 13.89-8.24 18.53-5.5 4.64-13.32 6.94-23.44 6.94a54 54 0 0 1-12.65-1.45 35.38 35.38 0 0 1-10.06-3.91l4.05-15.46a43.76 43.76 0 0 0 8.47 3.61 32.85 32.85 0 0 0 10.34 1.74q5.64 0 8.39-2.17a7.17 7.17 0 0 0 2.74-5.94 7.94 7.94 0 0 0-2.45-6.07c-1.65-1.54-4.68-3.28-9.12-5.21q-11.28-4.63-15.91-10.7a20.71 20.71 0 0 1-4.63-12.74 24.4 24.4 0 0 1 2.1-10 23.53 23.53 0 0 1 5.93-8.1 28.33 28.33 0 0 1 9.22-5.42 36 36 0 0 1 12.23-2 46.56 46.56 0 0 1 11.35 1.3 38 38 0 0 1 8.61 3.19z" class="cls-1"/><path id="path3" d="M312.071 114.2h-21.41V33.62h21.41z" class="cls-1"/><path id="path4" d="M22.571 114.2h-21.4V33.62h21.4Z" class="cls-1"/><path id="path5" d="M312.801 11.44a11 11 0 0 1-3.25 8.33 11.57 11.57 0 0 1-8.32 3.1 11.06 11.06 0 0 1-8.25-3.25 11.4 11.4 0 0 1 8.25-19.61 11.37 11.37 0 0 1 8.39 3.19 11.19 11.19 0 0 1 3.18 8.24z" class="cls-1"/><path id="path6" d="M234.391 14.17h21.12v19.45h23.87v17.36h-23.87V84.5q0 7.41 2.32 10.59c1.54 2.13 3.94 3.19 7.23 3.19a28.78 28.78 0 0 0 3.83-.21c1-.14 2.06-.32 3.12-.51v16.14a22.66 22.66 0 0 1-5.68 1.45 64.61 64.61 0 0 1-8.39.5q-8.67 0-13.46-3.26a20.34 20.34 0 0 1-7-7.88 27.5 27.5 0 0 1-2.67-9.63c-.3-3.32-.44-6.09-.44-8.31z" class="cls-1"/><path id="path7" d="M23.311 11.44a11 11 0 0 1-3.26 8.33 11.53 11.53 0 0 1-8.31 3.1 11.08 11.08 0 0 1-8.26-3.25A11.41 11.41 0 0 1 11.741.01a11.37 11.37 0 0 1 8.39 3.19 11.19 11.19 0 0 1 3.18 8.24z" class="cls-1"/><path id="path8" d="M221.771 35.21a30.19 30.19 0 0 0-5.4-2.19 33.39 33.39 0 0 0-3.81-.86 30.89 30.89 0 0 0-9.36-.17 23.31 23.31 0 0 0-6.33 1.68 22.72 22.72 0 0 0-7.65 5.36 23.85 23.85 0 0 0-4.91 8.09 28.26 28.26 0 0 0-1.48 6.32c-.09 1.07-.16 2.08-.22 3-.12 1.93-.19 3.64-.19 5.1v52.62h21.15V64.11c0-.74 0-1.43.06-2.11.22-3.74 1-6.52 2.25-8.3 1.54-2.13 3.94-3.19 7.23-3.19a28.78 28.78 0 0 1 3.83.21c1 .14 2.06.32 3.11.52l.1.06 3.34-15a18.32 18.32 0 0 0-1.72-1.09z" class="cls-1"/><path id="path9" d="M60.711 96.99v-.29c3.44-4 7.17-8.75 10.76-13.63l21.92-31.11.24-.33a11.64 11.64 0 0 0 .91-1.67 13 13 0 0 0 1.08-5.39c0-7.66-4.91-11-10.26-11h-47.65v17.26h33.7v.43c-3.47 4.19-6.94 8.53-10.56 13.45l-21.92 31.12-.24.34a12.35 12.35 0 0 0-2 7.05c0 7.67 4.9 11 10.26 11h50.47V96.99Z" class="cls-1"/></g></svg>