<svg xmlns="http://www.w3.org/2000/svg" width="84" height="140" fill="none"><path fill="#FFED00" d="M72.226 1.317h9.017v122.009H2.296v-24.81l69.93-97.2Z"/><path fill="#E30613" d="m2.254 1.288.042 97.025L72.222 1.317 2.254 1.288Z"/><path stroke="#040603" stroke-width="2.171" d="M1.211 1.085h80.31v122.636H1.211z"/><path fill="#008BD2" d="M71.046 2.95.79 100.33l8.166.377L70.43 16.102l.616-13.151Z"/><path fill="#040603" d="M62.351 60.483 30.067 38.838l34.83-17.703-2.546 39.348ZM60.36 96.488H36.5l11.986-21.124 11.873 21.124Z"/><path fill="#E30613" d="M42.718 108.371c.053-4.981 10.875-4.576 15.336 0H42.718Z"/><path fill="#000" fill-rule="evenodd" d="M7.22 133.914H7.18L5.43 136.85h3.758l-1.969-2.936Zm-2.665 4.213-1.31 1.705H0l6.17-8.294h2.403l6 8.294h-3.302l-1.222-1.696-5.494-.009Zm20.54.341h4.37v1.37h-7.45v-8.079h3.084l-.004 6.709Zm13.908 1.37h3.084v-6.707h3.19v-1.372h-9.464v1.372h3.19v6.707Zm16.994-6.707v1.774h4.91v1.37h-4.91v2.184h5.099v1.37h-8.184v-8.07h8.184v1.372h-5.1Zm15.878-1.585h-2.222v8.292h3.096v-5.485h.03L81.11 140h2.225v-8.241h-3.085v5.434h-.042l-8.332-5.647Z" clip-rule="evenodd"/></svg>