<svg xmlns="http://www.w3.org/2000/svg" xml:space="preserve" width="1122.667" height="187.117"><defs><clipPath id="a" clipPathUnits="userSpaceOnUse"><path d="M0 140.338h842V0H0Z"/></clipPath></defs><g clip-path="url(#a)" transform="matrix(1.33333 0 0 -1.33333 0 187.117)"><path d="M0 0h-80.007c-9.03 0-16.609-6.534-17.631-15.481-1.368-11.939-10.596-19.047-22.073-19.416-12.202 0-22.122 10.012-22.209 22.209.087 12.192 10.012 22.204 22.209 22.204 7.945 0 14.916-4.242 18.842-10.557a.848.848 0 0 1 1.368-.102 25.433 25.433 0 0 0 8.455 6.577.84.84 0 0 1 .331 1.221c-6.262 9.38-16.911 15.554-28.996 15.554-19.237 0-34.815-15.578-34.898-34.897.083-19.32 15.661-34.903 34.898-34.898 17.845.531 32.581 12.304 34.683 30.65.287 2.511 2.447 4.248 5.021 4.248h68.16l-.005-9.521c-.019-5.094-1.513-12.679-7.93-12.688-6.422.009-7.916 7.599-7.935 12.688v2.33a.843.843 0 0 1-.842.847h-10.994a.847.847 0 0 1-.847-.847v-2.33c-.02-5.089-1.508-12.679-7.93-12.688-6.422.009-7.916 7.594-7.935 12.688v2.33c0 .467-.38.847-.847.847h-10.995a.848.848 0 0 1-.847-.847v-2.33c.044-12.397 6.797-25.367 20.619-25.382h.009c5.644.005 10.626 2.287 14.265 6.349 3.644-4.062 8.621-6.344 14.269-6.349h.015C-5.956-47.576.798-34.606.837-22.209L.841-.847A.84.84 0 0 1 0 0" style="fill:#ff2356;fill-opacity:1;fill-rule:nonzero;stroke:none" transform="translate(841.158 118.129)"/><path d="M0 0c-21.402 0-36.206-15.481-36.206-38.254 0-23.071 15.334-38.25 37.193-38.25 10.757 0 20.575 2.535 29.308 9.74a.857.857 0 0 1 .156 1.138l-6.948 9.95a.84.84 0 0 1-1.201.18c-5.955-4.52-13.321-7.118-20.332-7.118-13.817 0-22.374 10.431-22.496 23.542-.112 12.518 5.979 24.953 20.224 24.953 10.09 0 16.697-6.602 18.439-17.908h-30.29a.845.845 0 0 1-.832-.696c-.638-3.464-.691-7.205-.097-10.674a.85.85 0 0 1 .832-.701h45.576c.428 0 .793.327.837.755.16 1.625.219 3.395.219 5.166C34.382-15.481 20.263 0 0 0" style="fill:#002b45;fill-opacity:1;fill-rule:nonzero;stroke:none" transform="translate(238.033 106.877)"/><path d="M0 0c-10.397 0-17.685-4.174-22.769-10.552v7.813a.843.843 0 0 1-.846.842h-14.172a.843.843 0 0 1-.847-.842V-106.03c0-.467.379-.847.847-.847h14.172c.467 0 .846.38.846.847v71.765c0 11.297 10.081 19.31 20.872 19.31 13.661 0 21.936-10.548 21.936-23.299 0-12.747-8.275-23.299-21.936-23.299-4.861 0-9.137 1.386-12.591 3.814-.56.394-1.329-.015-1.329-.696v-12.873c0-.603.331-1.158.852-1.464C-10.879-75.137-5.95-76.504 0-76.504c20.341 0 36.357 16.011 36.357 38.25C36.357-16.016 20.341 0 0 0" style="fill:#002b45;fill-opacity:1;fill-rule:nonzero;stroke:none" transform="translate(159.411 106.877)"/><path d="M0 0c-7.376 0-16.318-2.248-22.166-10.572v7.833a.839.839 0 0 1-.841.842h-14.172a.84.84 0 0 1-.847-.842v-71.026c0-.467.375-.847.847-.847h14.172c.467 0 .841.38.841.847v39.461c0 12.445 8.578 19.198 18.824 19.198 10.703 0 16.93-6.831 16.93-19.047v-39.612c0-.467.375-.847.842-.847h14.25c.467 0 .846.38.846.847v44.847C29.526-11.915 17.305 0 0 0" style="fill:#002b45;fill-opacity:1;fill-rule:nonzero;stroke:none" transform="translate(319.988 106.877)"/><path d="M0 0a.852.852 0 0 1-.905-.847v-14.858c0-.428.326-.783.754-.832 19.261-2.053 33.053-17.1 33.053-38.361 0-22.905-16.006-38.609-37.621-38.609-21.616 0-37.617 15.704-37.617 38.609 0 21.256 13.787 36.308 33.048 38.361a.842.842 0 0 1 .754.832V-.847A.852.852 0 0 1-9.438 0c-30.091-2.136-50.875-24.676-50.875-54.898 0-31.779 22.978-55.068 55.594-55.068 32.615 0 55.598 23.289 55.598 55.068C50.879-24.676 30.091-2.136 0 0" style="fill:#002b45;fill-opacity:1;fill-rule:nonzero;stroke:none" transform="translate(60.313 140.335)"/><path d="M0 0a1.693 1.693 0 0 1 1.328-.642h17.539c.71 0 1.099.822.661 1.372L-10.12 37.841l29.191 32.825c.481.545.093 1.406-.633 1.406H1.124c-.487 0-.954-.214-1.27-.584l-23.479-27.045h-6.622v60.244a.842.842 0 0 1-.847.842h-14.171a.842.842 0 0 1-.842-.842V.204c0-.467.375-.846.842-.846h14.171c.473 0 .847.379.847.846v29.819h6.544z" style="fill:#002b45;fill-opacity:1;fill-rule:nonzero;stroke:none" transform="translate(653.834 32.91)"/><path d="M0 0c-7.376 0-16.318-2.248-22.166-10.572v7.833a.839.839 0 0 1-.841.842h-14.172a.84.84 0 0 1-.847-.842v-71.026c0-.467.375-.847.847-.847h14.172c.467 0 .841.38.841.847v39.461c0 12.445 8.577 19.198 18.824 19.198 10.703 0 16.925-6.831 16.925-19.047v-39.612c0-.467.38-.847.847-.847h14.249c.468 0 .847.38.847.847v44.847C29.526-11.915 17.305 0 0 0" style="fill:#002b45;fill-opacity:1;fill-rule:nonzero;stroke:none" transform="translate(566.618 106.877)"/><path d="M0 0h-14.172a.846.846 0 0 1-.847-.842V-8.65C-20.103-2.277-27.391 1.897-37.787 1.897c-20.342 0-36.358-16.016-36.358-38.254s16.016-38.25 36.358-38.25c5.95 0 10.878 1.368 14.96 3.732.525.302.851.861.851 1.469v12.873a.841.841 0 0 1-1.323.691c-3.459-2.428-7.736-3.814-12.591-3.814-13.661 0-21.937 10.547-21.937 23.299 0 12.751 8.276 23.304 21.937 23.304 10.791 0 20.871-8.018 20.871-19.315v-39.499c0-.468.38-.842.847-.842H0c.467 0 .846.374.846.842V-.842A.845.845 0 0 1 0 0" style="fill:#002b45;fill-opacity:1;fill-rule:nonzero;stroke:none" transform="translate(516.166 104.98)"/><path d="M0 0c0 22.243-16.016 38.254-36.357 38.254-5.95 0-10.879-1.367-14.96-3.731a1.7 1.7 0 0 1-.852-1.47V20.18a.84.84 0 0 1 1.323-.69c3.455 2.422 7.736 3.809 12.591 3.809 13.662 0 21.937-10.548 21.937-23.299 0-12.747-8.275-23.299-21.937-23.299-10.785 0-20.871 8.013-20.871 19.314v72.958a.842.842 0 0 1-.842.841h-14.177a.841.841 0 0 1-.841-.841V-35.511c0-.467.374-.846.841-.846h14.177c.467 0 .842.379.842.846v7.809c5.084-6.378 12.372-10.548 22.769-10.548C-16.016-38.25 0-22.234 0 0" style="fill:#002b45;fill-opacity:1;fill-rule:nonzero;stroke:none" transform="translate(436.083 68.623)"/></g></svg>