<svg xmlns="http://www.w3.org/2000/svg" width="768" height="114" fill="none"><path fill="#061B2B" d="M48.288 113.163c-10.907 0-20.12-2.369-27.638-7.107-7.519-4.738-12.867-11.278-16.044-19.621L23.35 75.773c4.342 11.021 12.866 16.531 25.574 16.531 5.93 0 10.377-1.03 13.343-3.09 2.965-2.06 4.447-4.84 4.447-8.343 0-3.81-1.747-6.746-5.242-8.806-3.494-2.163-9.742-4.48-18.743-6.953-9.742-2.883-17.42-6.231-23.032-10.042-6.99-5.047-10.484-12.463-10.484-22.248 0-9.888 3.547-17.665 10.642-23.33C26.95 3.624 35.581.688 45.747.688c8.895 0 16.784 2.112 23.668 6.335 6.883 4.223 12.23 10.197 16.043 17.922L67.032 35.294c-4.448-9.27-11.543-13.905-21.285-13.905-4.448 0-7.995 1.03-10.643 3.09-2.647 1.957-3.97 4.532-3.97 7.725 0 3.399 1.429 6.18 4.288 8.343 3.177 2.163 8.79 4.429 16.838 6.798l7.624 2.472c1.377.412 3.76 1.288 7.148 2.627 3.177 1.133 5.507 2.214 6.989 3.244 5.189 3.09 8.683 6.283 10.484 9.579 2.753 4.326 4.13 9.424 4.13 15.296 0 9.99-3.76 17.922-11.278 23.793-7.519 5.871-17.208 8.806-29.069 8.806ZM176.018 68.822V2.85h21.921V111H181.26l-47.653-66.126V111h-21.92V2.85h16.678l47.653 65.972ZM281.467 52.908h55.754v8.343c0 15.45-5.083 27.965-15.249 37.544-10.166 9.579-23.297 14.368-39.393 14.368-17.155 0-31.398-5.407-42.729-16.222-11.225-10.919-16.838-24.206-16.838-39.861 0-15.76 5.56-29.098 16.679-40.016C250.916 6.146 264.788.687 281.308.687c10.272 0 19.696 2.266 28.274 6.798s15.302 10.66 20.173 18.386l-18.743 10.506c-2.648-4.43-6.672-8.035-12.072-10.816-5.401-2.78-11.331-4.171-17.791-4.171-10.695 0-19.432 3.399-26.209 10.197-6.777 6.592-10.166 15.09-10.166 25.493 0 10.197 3.442 18.642 10.325 25.338 6.883 6.591 16.096 9.887 27.638 9.887 8.366 0 15.355-1.802 20.968-5.407 5.612-3.605 9.425-8.652 11.437-15.141h-33.675V52.908ZM403.025 113.163c-12.389 0-22.555-3.399-30.498-10.197-7.942-6.798-11.913-15.913-11.913-27.346V2.85h21.762v71.07c0 5.768 1.694 10.3 5.083 13.596 3.494 3.193 8.683 4.79 15.566 4.79 6.884 0 12.02-1.597 15.408-4.79 3.495-3.296 5.242-7.828 5.242-13.596V2.85h21.92v72.77c0 11.432-3.971 20.548-11.913 27.346-7.942 6.798-18.161 10.197-30.657 10.197ZM496.794 2.85v87.756h42.411V111h-64.332V2.85h21.921ZM659.597 111h-23.826l-6.672-19.467h-44.317L578.11 111h-23.667L593.359 2.85h27.163L659.597 111ZM607.02 27.416l-15.249 44.187h30.498L607.02 27.416ZM764.588 111H740.92l-22.397-37.543h-16.679V111h-21.92V2.85H724.4c10.272 0 19.009 3.502 26.209 10.506 7.201 7.004 10.802 15.45 10.802 25.338 0 6.695-1.959 12.926-5.877 18.694-3.919 5.666-9.107 9.94-15.567 12.824L764.588 111ZM724.4 22.78h-22.556v31.982H724.4c4.13 0 7.678-1.545 10.643-4.635 2.965-3.193 4.447-7.004 4.447-11.433s-1.482-8.189-4.447-11.279-6.513-4.634-10.643-4.634Z"/></svg>