<svg xmlns="http://www.w3.org/2000/svg" width="309" height="108" fill="none"><path fill="url(#a)" d="M9.926 49h-6.75l12.29-34.91h7.807L35.58 49h-6.75l-9.324-27.75h-.273L9.926 49Zm.222-13.688h18.409v5.08h-18.41v-5.08ZM40.178 49V14.09H46.5V43.7h15.375V49H40.178Zm27.187-34.91h7.739l10.363 25.296h.41L96.24 14.091h7.739V49H97.91V25.017h-.323l-9.648 23.88h-4.534l-9.648-23.931h-.324V49h-6.068V14.09Zm43.5 34.91V14.09h22.705v5.302h-16.381v9.477h15.204v5.301h-15.204V43.7h16.517V49h-22.841Zm29.156 0V14.09h13.091c2.682 0 4.932.467 6.75 1.399 1.83.931 3.21 2.238 4.142 3.92.943 1.67 1.415 3.62 1.415 5.847 0 2.238-.477 4.181-1.432 5.83-.943 1.636-2.335 2.903-4.176 3.8-1.841.887-4.102 1.33-6.784 1.33h-9.324v-5.25h8.472c1.568 0 2.852-.216 3.852-.648 1-.443 1.739-1.085 2.216-1.926.489-.852.733-1.898.733-3.136 0-1.239-.244-2.296-.733-3.17-.489-.887-1.233-1.558-2.233-2.012-1-.466-2.29-.699-3.869-.699h-5.796V49h-6.324Zm18.034-15.818L166.697 49h-7.056l-8.489-15.818h6.903Zm19.509-19.091V49h-6.324V14.09h6.324ZM188.895 49h-6.75l12.29-34.91h7.806L214.548 49h-6.75l-9.324-27.75h-.272L188.895 49Zm.221-13.688h18.41v5.08h-18.41v-5.08Z"/><path fill="#3D3737" d="M3.182 57.653v-8.835h46.42v8.835H31.62V107H21.165V57.653H3.182ZM58.552 107V48.818h37.84v8.835H69.091V73.45h25.34v8.835h-25.34v15.88h27.528V107H58.551Zm98.394-38.551h-10.625c-.303-1.743-.862-3.286-1.676-4.63a12.464 12.464 0 0 0-3.04-3.467c-1.212-.947-2.595-1.657-4.148-2.13-1.534-.493-3.191-.739-4.971-.739-3.163 0-5.966.795-8.409 2.386-2.443 1.572-4.356 3.883-5.739 6.932-1.383 3.03-2.074 6.733-2.074 11.108 0 4.45.691 8.2 2.074 11.25 1.402 3.03 3.314 5.322 5.739 6.875 2.443 1.534 5.236 2.301 8.38 2.301 1.743 0 3.372-.227 4.887-.682 1.534-.473 2.907-1.164 4.119-2.074a12.195 12.195 0 0 0 3.097-3.352c.852-1.326 1.439-2.84 1.761-4.545l10.625.057a22.878 22.878 0 0 1-2.585 7.784 22.952 22.952 0 0 1-5.142 6.42c-2.121 1.837-4.603 3.277-7.443 4.318-2.841 1.023-5.995 1.534-9.461 1.534-5.113 0-9.678-1.183-13.693-3.551-4.015-2.367-7.178-5.786-9.488-10.255-2.311-4.47-3.466-9.83-3.466-16.08 0-6.269 1.164-11.629 3.494-16.08 2.329-4.47 5.502-7.888 9.517-10.255 4.015-2.368 8.561-3.551 13.636-3.551 3.239 0 6.25.454 9.034 1.363 2.785.91 5.266 2.245 7.444 4.006 2.178 1.742 3.967 3.883 5.369 6.42 1.42 2.52 2.348 5.398 2.784 8.637ZM166.598 107V48.818h10.54v24.63h26.96v-24.63h10.568V107h-10.568V82.284h-26.96V107h-10.54Z"/><path fill="url(#b)" d="M249.701 18.776h-4.286c-1.441 0-2.608 1.126-2.608 2.515 0 1.39 1.167 2.515 2.608 2.515h4.286v6.828h-4.286c-1.441 0-2.608 1.126-2.608 2.515 0 1.39 1.167 2.516 2.608 2.516h4.286v17.608h-7.919v-8.265c0-5.251-4.43-9.523-9.876-9.523-5.445 0-9.875 4.272-9.875 9.523v3.414h-2.422c-1.441 0-2.609 1.126-2.609 2.515 0 1.39 1.168 2.516 2.609 2.516h2.422v6.827h-2.422c-1.441 0-2.609 1.126-2.609 2.515 0 1.39 1.168 2.516 2.609 2.516h2.937c1.898 7.418 8.853 12.936 17.124 12.936h6.956V104.3c0 1.984 1.669 3.593 3.727 3.593h24.596c2.058 0 3.726-1.609 3.726-3.593V66.39h6.739c8.314 0 15.318-5.508 17.298-12.937h2.981c1.441 0 2.609-1.126 2.609-2.515 0-1.39-1.168-2.516-2.609-2.516h-2.422v-6.827h2.422c1.441 0 2.609-1.126 2.609-2.516 0-1.389-1.168-2.515-2.609-2.515h-2.422V33.15c0-5.25-4.43-9.522-9.876-9.522-5.445 0-9.875 4.271-9.875 9.522v8.265h-7.919V23.807h4.658c1.441 0 2.609-1.126 2.609-2.515 0-1.39-1.168-2.516-2.609-2.516h-4.658c0-2.137-.561-4.6-1.546-6.36l2.677-2.582a2.452 2.452 0 0 0 0-3.557 2.68 2.68 0 0 0-3.69 0l-2.354 2.27a13.115 13.115 0 0 0-5.428-2.452v-3.58c0-1.389-1.168-2.515-2.609-2.515-1.44 0-2.608 1.126-2.608 2.515v3.579a13.119 13.119 0 0 0-5.429 2.452l-2.354-2.27a2.678 2.678 0 0 0-3.689 0 2.452 2.452 0 0 0 0 3.558l2.677 2.581c-.987 1.761-1.547 4.224-1.547 6.36Zm46.117 30.395c0 5.531-4.667 10.032-10.404 10.032h-10.465c-2.058 0-3.727 1.609-3.727 3.593v37.911H254.08V74.655c0-1.985-1.669-3.594-3.727-3.594H239.67c-5.616 0-10.186-4.406-10.186-9.822v-16.23c0-1.288 1.087-2.336 2.423-2.336s2.422 1.047 2.422 2.335v11.86c0 1.984 1.669 3.593 3.727 3.593h15.372c2.058 0 3.727-1.61 3.727-3.594v-38.54c0-2.923 2.466-5.3 5.496-5.3 3.031 0 5.497 2.378 5.497 5.3v26.681c0 1.985 1.668 3.594 3.727 3.594h15.372c2.058 0 3.726-1.61 3.726-3.594V33.15c0-1.288 1.087-2.336 2.423-2.336s2.422 1.047 2.422 2.336V49.17Z"/><defs><linearGradient id="a" x1="116.5" x2="116.5" y1="3" y2="81" gradientUnits="userSpaceOnUse"><stop offset=".345" stop-color="#7CBF39"/><stop offset="1" stop-color="#080E01"/></linearGradient><linearGradient id="b" x1="262.651" x2="262.651" y1="0" y2="107.893" gradientUnits="userSpaceOnUse"><stop offset=".39" stop-color="#86CE3E"/><stop offset=".62" stop-color="#5A8D27"/><stop offset="1" stop-color="#112201"/></linearGradient></defs></svg>