<?xml version="1.0" encoding="UTF-8" standalone="no"?>
<svg
   xmlns:dc="http://purl.org/dc/elements/1.1/"
   xmlns:cc="http://creativecommons.org/ns#"
   xmlns:rdf="http://www.w3.org/1999/02/22-rdf-syntax-ns#"
   xmlns:svg="http://www.w3.org/2000/svg"
   xmlns="http://www.w3.org/2000/svg"
   viewBox="0 0 1122.6667 187.11732"
   height="187.11732"
   width="1122.6667"
   xml:space="preserve"
   id="svg2"
   version="1.1"><metadata
     id="metadata8"><rdf:RDF><cc:Work
         rdf:about=""><dc:format>image/svg+xml</dc:format><dc:type
           rdf:resource="http://purl.org/dc/dcmitype/StillImage" /></cc:Work></rdf:RDF></metadata><defs
     id="defs6"><clipPath
       id="clipPath18"
       clipPathUnits="userSpaceOnUse"><path
         id="path16"
         d="M 0,140.338 H 842 V 0 H 0 Z" /></clipPath></defs><g
     transform="matrix(1.3333333,0,0,-1.3333333,0,187.11733)"
     id="g10"><g
       id="g12"><g
         clip-path="url(#clipPath18)"
         id="g14"><g
           transform="translate(841.1584,118.1285)"
           id="g20"><path
             id="path22"
             style="fill:#ff2356;fill-opacity:1;fill-rule:nonzero;stroke:none"
             d="m 0,0 h -80.007 c -9.03,0 -16.609,-6.534 -17.631,-15.481 -1.368,-11.939 -10.596,-19.047 -22.073,-19.416 -12.202,0 -22.122,10.012 -22.209,22.209 0.087,12.192 10.012,22.204 22.209,22.204 7.945,0 14.916,-4.242 18.842,-10.557 0.307,-0.492 0.998,-0.54 1.368,-0.102 2.306,2.753 5.185,5.001 8.455,6.577 0.457,0.219 0.613,0.798 0.331,1.221 -6.262,9.38 -16.911,15.554 -28.996,15.554 -19.237,0 -34.815,-15.578 -34.898,-34.897 0.083,-19.32 15.661,-34.903 34.898,-34.898 17.845,0.531 32.581,12.304 34.683,30.65 0.287,2.511 2.447,4.248 5.021,4.248 h 68.16 l -0.005,-9.521 c -0.019,-5.094 -1.513,-12.679 -7.93,-12.688 -6.422,0.009 -7.916,7.599 -7.935,12.688 v 2.33 c 0,0.467 -0.374,0.847 -0.842,0.847 h -10.994 c -0.468,0 -0.847,-0.38 -0.847,-0.847 v -2.33 c -0.02,-5.089 -1.508,-12.679 -7.93,-12.688 -6.422,0.009 -7.916,7.594 -7.935,12.688 v 2.33 c 0,0.467 -0.38,0.847 -0.847,0.847 h -10.995 c -0.467,0 -0.847,-0.38 -0.847,-0.847 v -2.33 c 0.044,-12.397 6.797,-25.367 20.619,-25.382 h 0.009 c 5.644,0.005 10.626,2.287 14.265,6.349 3.644,-4.062 8.621,-6.344 14.269,-6.349 h 0.015 c 13.821,0.015 20.575,12.985 20.614,25.382 L 0.841,-0.847 C 0.846,-0.379 0.467,0 0,0" /></g><g
           transform="translate(238.0333,106.8769)"
           id="g24"><path
             id="path26"
             style="fill:#002b45;fill-opacity:1;fill-rule:nonzero;stroke:none"
             d="m 0,0 c -21.402,0 -36.206,-15.481 -36.206,-38.254 0,-23.071 15.334,-38.25 37.193,-38.25 10.757,0 20.575,2.535 29.308,9.74 0.336,0.282 0.404,0.778 0.156,1.138 l -6.948,9.95 c -0.272,0.389 -0.822,0.476 -1.201,0.18 -5.955,-4.52 -13.321,-7.118 -20.332,-7.118 -13.817,0 -22.374,10.431 -22.496,23.542 -0.112,12.518 5.979,24.953 20.224,24.953 10.09,0 16.697,-6.602 18.439,-17.908 h -30.29 c -0.409,0 -0.759,-0.292 -0.832,-0.696 -0.638,-3.464 -0.691,-7.205 -0.097,-10.674 0.073,-0.404 0.423,-0.701 0.832,-0.701 h 45.576 c 0.428,0 0.793,0.327 0.837,0.755 0.16,1.625 0.219,3.395 0.219,5.166 C 34.382,-15.481 20.263,0 0,0" /></g><g
           transform="translate(159.4111,106.8769)"
           id="g28"><path
             id="path30"
             style="fill:#002b45;fill-opacity:1;fill-rule:nonzero;stroke:none"
             d="m 0,0 c -10.397,0 -17.685,-4.174 -22.769,-10.552 v 7.813 c 0,0.467 -0.379,0.842 -0.846,0.842 h -14.172 c -0.468,0 -0.847,-0.375 -0.847,-0.842 V -106.03 c 0,-0.467 0.379,-0.847 0.847,-0.847 h 14.172 c 0.467,0 0.846,0.38 0.846,0.847 v 71.765 c 0,11.297 10.081,19.31 20.872,19.31 13.661,0 21.936,-10.548 21.936,-23.299 0,-12.747 -8.275,-23.299 -21.936,-23.299 -4.861,0 -9.137,1.386 -12.591,3.814 -0.56,0.394 -1.329,-0.015 -1.329,-0.696 v -12.873 c 0,-0.603 0.331,-1.158 0.852,-1.464 4.086,-2.365 9.015,-3.732 14.965,-3.732 20.341,0 36.357,16.011 36.357,38.25 C 36.357,-16.016 20.341,0 0,0" /></g><g
           transform="translate(319.988,106.8769)"
           id="g32"><path
             id="path34"
             style="fill:#002b45;fill-opacity:1;fill-rule:nonzero;stroke:none"
             d="m 0,0 c -7.376,0 -16.318,-2.248 -22.166,-10.572 v 7.833 c 0,0.467 -0.374,0.842 -0.841,0.842 h -14.172 c -0.472,0 -0.847,-0.375 -0.847,-0.842 v -71.026 c 0,-0.467 0.375,-0.847 0.847,-0.847 h 14.172 c 0.467,0 0.841,0.38 0.841,0.847 v 39.461 c 0,12.445 8.578,19.198 18.824,19.198 10.703,0 16.93,-6.831 16.93,-19.047 v -39.612 c 0,-0.467 0.375,-0.847 0.842,-0.847 h 14.25 c 0.467,0 0.846,0.38 0.846,0.847 v 44.847 C 29.526,-11.915 17.305,0 0,0" /></g><g
           transform="translate(60.313,140.3348)"
           id="g36"><path
             id="path38"
             style="fill:#002b45;fill-opacity:1;fill-rule:nonzero;stroke:none"
             d="m 0,0 c -0.487,0.034 -0.905,-0.36 -0.905,-0.847 v -14.858 c 0,-0.428 0.326,-0.783 0.754,-0.832 19.261,-2.053 33.053,-17.1 33.053,-38.361 0,-22.905 -16.006,-38.609 -37.621,-38.609 -21.616,0 -37.617,15.704 -37.617,38.609 0,21.256 13.787,36.308 33.048,38.361 0.428,0.049 0.754,0.404 0.754,0.832 v 14.858 c 0,0.487 -0.418,0.881 -0.904,0.847 -30.091,-2.136 -50.875,-24.676 -50.875,-54.898 0,-31.779 22.978,-55.068 55.594,-55.068 32.615,0 55.598,23.289 55.598,55.068 C 50.879,-24.676 30.091,-2.136 0,0" /></g><g
           transform="translate(653.8338,32.9093)"
           id="g40"><path
             id="path42"
             style="fill:#002b45;fill-opacity:1;fill-rule:nonzero;stroke:none"
             d="m 0,0 c 0.321,-0.404 0.807,-0.642 1.328,-0.642 h 17.539 c 0.71,0 1.099,0.822 0.661,1.372 L -10.12,37.841 19.071,70.666 c 0.481,0.545 0.093,1.406 -0.633,1.406 H 1.124 c -0.487,0 -0.954,-0.214 -1.27,-0.584 L -23.625,44.443 h -6.622 v 60.244 c 0,0.463 -0.374,0.842 -0.847,0.842 h -14.171 c -0.467,0 -0.842,-0.379 -0.842,-0.842 V 0.204 c 0,-0.467 0.375,-0.846 0.842,-0.846 h 14.171 c 0.473,0 0.847,0.379 0.847,0.846 v 29.819 h 6.544 z" /></g><g
           transform="translate(566.6181,106.8769)"
           id="g44"><path
             id="path46"
             style="fill:#002b45;fill-opacity:1;fill-rule:nonzero;stroke:none"
             d="m 0,0 c -7.376,0 -16.318,-2.248 -22.166,-10.572 v 7.833 c 0,0.467 -0.374,0.842 -0.841,0.842 h -14.172 c -0.472,0 -0.847,-0.375 -0.847,-0.842 v -71.026 c 0,-0.467 0.375,-0.847 0.847,-0.847 h 14.172 c 0.467,0 0.841,0.38 0.841,0.847 v 39.461 c 0,12.445 8.577,19.198 18.824,19.198 10.703,0 16.925,-6.831 16.925,-19.047 v -39.612 c 0,-0.467 0.38,-0.847 0.847,-0.847 h 14.249 c 0.468,0 0.847,0.38 0.847,0.847 v 44.847 C 29.526,-11.915 17.305,0 0,0" /></g><g
           transform="translate(516.1657,104.9796)"
           id="g48"><path
             id="path50"
             style="fill:#002b45;fill-opacity:1;fill-rule:nonzero;stroke:none"
             d="m 0,0 h -14.172 c -0.467,0 -0.847,-0.379 -0.847,-0.842 V -8.65 c -5.084,6.373 -12.372,10.547 -22.768,10.547 -20.342,0 -36.358,-16.016 -36.358,-38.254 0,-22.238 16.016,-38.25 36.358,-38.25 5.95,0 10.878,1.368 14.96,3.732 0.525,0.302 0.851,0.861 0.851,1.469 v 12.873 c 0,0.681 -0.764,1.08 -1.323,0.691 -3.459,-2.428 -7.736,-3.814 -12.591,-3.814 -13.661,0 -21.937,10.547 -21.937,23.299 0,12.751 8.276,23.304 21.937,23.304 10.791,0 20.871,-8.018 20.871,-19.315 v -39.499 c 0,-0.468 0.38,-0.842 0.847,-0.842 H 0 c 0.467,0 0.846,0.374 0.846,0.842 V -0.842 C 0.846,-0.379 0.467,0 0,0" /></g><g
           transform="translate(436.0832,68.6226)"
           id="g52"><path
             id="path54"
             style="fill:#002b45;fill-opacity:1;fill-rule:nonzero;stroke:none"
             d="m 0,0 c 0,22.243 -16.016,38.254 -36.357,38.254 -5.95,0 -10.879,-1.367 -14.96,-3.731 -0.526,-0.307 -0.852,-0.861 -0.852,-1.47 V 20.18 c 0,-0.681 0.764,-1.084 1.323,-0.69 3.455,2.422 7.736,3.809 12.591,3.809 13.662,0 21.937,-10.548 21.937,-23.299 0,-12.747 -8.275,-23.299 -21.937,-23.299 -10.785,0 -20.871,8.013 -20.871,19.314 v 72.958 c 0,0.462 -0.375,0.841 -0.842,0.841 h -14.177 c -0.467,0 -0.841,-0.379 -0.841,-0.841 V -35.511 c 0,-0.467 0.374,-0.846 0.841,-0.846 h 14.177 c 0.467,0 0.842,0.379 0.842,0.846 v 7.809 C -54.042,-34.08 -46.754,-38.25 -36.357,-38.25 -16.016,-38.25 0,-22.234 0,0" /></g></g></g></g></svg>