<svg xmlns="http://www.w3.org/2000/svg" width="767.838" height="172.008" viewBox="0 0 203.157 45.511"><g style="font-style:normal;font-weight:400;font-size:5.66756868px;line-height:125%;font-family:sans-serif;letter-spacing:0;word-spacing:0;fill:#000;fill-opacity:1;stroke:none;stroke-width:1px;stroke-linecap:butt;stroke-linejoin:miter;stroke-opacity:1"><path d="M177.51 57.536q-1.593 1.94-3.878 3.082-2.258 1.142-4.994 1.142-2.365 0-4.437-.85-2.072-.877-3.613-2.365-1.541-1.487-2.444-3.48-.877-2.019-.877-4.33 0-2.312.877-4.304.903-2.02 2.444-3.507 1.54-1.514 3.613-2.364 2.072-.85 4.437-.85 2.736 0 4.994 1.142 2.285 1.142 3.8 2.975l-2.844 2.923q-.983-1.408-2.55-2.258-1.54-.877-3.4-.877-1.488 0-2.817.584-1.301.558-2.284 1.541-.983.957-1.568 2.258-.558 1.276-.558 2.737 0 1.434.558 2.736.585 1.275 1.568 2.258.983.957 2.284 1.541 1.329.558 2.817.558 1.965 0 3.48-.877 1.514-.903 2.524-2.364zM201.089 61.361h-4.517l-1.966-4.25H184.3l-1.993 4.25h-4.516l10.042-21.253h3.215zm-8.103-7.677-3.533-7.652-3.587 7.652zM220.874 61.361h-4.039l-9.59-14.904v14.904h-4.038V40.108h4.622l9.006 13.868V40.108h4.039zM246.283 61.361h-4.516l-1.966-4.25h-10.308l-1.992 4.25h-4.517l10.043-21.253h3.214zm-8.103-7.677-3.533-7.652-3.586 7.652zM264.394 61.361h-4.543l-1.514-4.835q-.239-.797-.61-1.46-.346-.665-.851-1.143t-1.222-.744q-.69-.266-1.647-.266h-1.541v8.448H248.4V40.135l8.395-.027q1.355 0 2.524.478 1.17.452 2.02 1.275.85.824 1.328 1.94.478 1.116.478 2.417 0 .93-.292 1.807-.293.877-.824 1.62-.531.744-1.275 1.329-.718.558-1.594.85 1.01.372 1.647 1.09.637.69 1.01 1.673.185.452.345.903.16.452.319.957.186.478.372 1.062.212.558.451 1.249.292.877.531 1.514.266.611.558 1.09zm-5.393-14.85q0-.744-.292-1.355-.266-.611-.744-1.063-.478-.452-1.142-.69-.638-.266-1.382-.266h-2.975v6.615h2.975q.744 0 1.382-.213.664-.239 1.142-.664.478-.425.744-1.01.292-.61.292-1.354zM271.043 61.361h-4.118V40.135h4.118zM296.46 61.361h-4.517l-1.966-4.25h-10.308l-1.992 4.25h-4.517l10.042-21.253h3.215zm-8.104-7.677-3.533-7.652-3.587 7.652zM312.764 55.782q0 1.196-.532 2.285-.504 1.063-1.434 1.886-.93.824-2.205 1.329-1.275.478-2.816.478-1.382 0-2.498-.16-1.089-.159-2.072-.504-.956-.346-1.86-.877-.876-.558-1.833-1.328l2.923-2.95q1.275 1.063 2.497 1.515 1.222.425 2.657.425.584 0 1.089-.16.531-.185.903-.477.399-.293.611-.691.24-.399.24-.877 0-.505-.187-.903-.186-.399-.664-.77-.478-.373-1.328-.744-.85-.399-2.179-.877-1.169-.425-2.258-.957-1.062-.557-1.886-1.328-.797-.77-1.302-1.806-.478-1.037-.478-2.445 0-1.354.531-2.497.558-1.142 1.488-1.94.956-.823 2.205-1.274 1.275-.452 2.736-.452 2.445 0 4.118.638 1.674.637 2.976 1.86l-2.87 2.895q-.796-.77-1.78-1.169-.982-.425-2.31-.425-.612 0-1.143.186-.505.186-.877.505-.372.292-.61.717-.213.399-.213.85 0 .505.212.93.213.398.717.797.505.372 1.329.77.85.372 2.099.824 1.594.558 2.736 1.222 1.142.664 1.86 1.461.717.797 1.062 1.807.346.983.346 2.231z" style="font-style:normal;font-variant:normal;font-weight:500;font-stretch:normal;font-size:26.56672859px;font-family:&quot;Keep Calm&quot;;-inkscape-font-specification:&quot;Keep Calm Medium&quot;;fill:#000;fill-opacity:1" transform="matrix(.99052 0 0 .99052 -155.777 -19.17)"/></g><path d="M234.53 72.878v44.832h44.833V72.878Z" style="display:inline;fill:none;stroke:#efb300;stroke-width:.67878628;stroke-miterlimit:4;stroke-dasharray:none;stroke-opacity:1" transform="translate(-76.545 -72.539)"/><path d="M268.51 93.146c2.68 0 4.605.932 5.992 3.373l-3.28 2.106c-.723-1.295-1.502-1.805-2.711-1.805-1.234 0-2.017.782-2.017 1.805 0 1.264.783 1.776 2.59 2.558l1.054.451c3.58 1.535 5.6 3.1 5.6 6.618 0 3.793-2.979 5.871-6.98 5.871-3.913 0-6.44-1.864-7.677-4.308l3.423-1.989c.903 1.475 2.078 2.558 4.156 2.558 1.746 0 2.86-.872 2.86-2.077 0-1.445-1.145-1.957-3.066-2.797l-1.053-.452c-3.04-1.295-5.06-2.918-5.06-6.348 0-3.16 2.407-5.564 6.17-5.564zm-13.92.24h4.213v14.382c0 4.362-2.557 6.348-6.29 6.348-3.373 0-5.327-1.746-6.32-3.849l3.43-2.076c.661 1.174 1.263 2.167 2.71 2.167 1.385 0 2.258-.541 2.258-2.647z" style="display:inline;fill:#efb300;fill-opacity:1;stroke:none;stroke-width:.67878628;stroke-miterlimit:4;stroke-dasharray:none;stroke-opacity:1" transform="translate(-76.545 -72.539)"/></svg>